<?xml version="1.0" encoding="UTF-8"?>
<svg version="1.1" xmlns="http://www.w3.org/2000/svg" width="512" height="512">
<path d="M0 0 C1.59443414 -0.00462073 3.18886401 -0.01098144 4.78328514 -0.01890898 C9.12156164 -0.03546473 13.459482 -0.02741931 17.79775906 -0.0149641 C22.49314614 -0.00585902 27.18847487 -0.01991023 31.8838501 -0.03088379 C41.06507742 -0.04861567 50.2461735 -0.04485286 59.42740583 -0.03323323 C66.89308208 -0.02417812 74.35872169 -0.02298387 81.82440186 -0.02732849 C82.8893281 -0.02794142 83.95425435 -0.02855436 85.05145109 -0.02918586 C87.21522412 -0.03046484 89.37899714 -0.03176169 91.54277015 -0.03307623 C111.80459524 -0.04446641 132.0663478 -0.03139286 152.328161 -0.00987476 C169.69162932 0.00799478 187.05499064 0.00489024 204.41845703 -0.0135498 C224.61068036 -0.03498413 244.8028402 -0.04336792 264.99507332 -0.03110075 C267.15062585 -0.02982663 269.3061784 -0.02856915 271.46173096 -0.02732849 C273.05234756 -0.02640284 273.05234756 -0.02640284 274.67509782 -0.02545848 C282.12673688 -0.02201327 289.57833547 -0.02781602 297.02996826 -0.0372467 C306.11829114 -0.04849657 315.20647593 -0.04536401 324.29478312 -0.02412373 C328.92658234 -0.01365343 333.55815181 -0.00942243 338.18994904 -0.02272034 C342.43886639 -0.03473398 346.68734336 -0.02793575 350.93622136 -0.00681013 C352.46428919 -0.00238173 353.99239506 -0.00452442 355.52043796 -0.01431328 C368.62567123 -0.09175596 381.06779542 1.98198065 392.83056641 8.07043457 C393.48927734 8.40631592 394.14798828 8.74219727 394.82666016 9.08825684 C401.79909411 12.83712243 407.18009143 17.84868504 412.64306641 23.50793457 C413.38041016 24.21434082 414.11775391 24.92074707 414.87744141 25.64855957 C419.15872847 29.99622318 422.10986382 34.75134132 424.89306641 40.13293457 C425.36921387 41.0362854 425.36921387 41.0362854 425.85498047 41.95788574 C431.79934617 54.12945893 433.23653621 66.51280602 433.15100098 79.86486816 C433.1556217 81.45930231 433.16198242 83.05373217 433.16990995 84.64815331 C433.18646571 88.9864298 433.17842029 93.32435016 433.16596508 97.66262722 C433.15685999 102.3580143 433.17091121 107.05334303 433.18188477 111.74871826 C433.19961665 120.92994558 433.19585384 130.11104166 433.1842342 139.292274 C433.1751791 146.75795024 433.17398484 154.22358986 433.17832947 161.68927002 C433.1789424 162.75419627 433.17955533 163.81912251 433.18018684 164.91631925 C433.18146581 167.08009228 433.18276267 169.2438653 433.1840772 171.40763831 C433.19546739 191.66946341 433.18239383 211.93121597 433.16087574 232.19302917 C433.14300619 249.55649748 433.14611074 266.91985881 433.16455078 284.2833252 C433.18598511 304.47554852 433.1943689 324.66770837 433.18210173 344.85994148 C433.18082761 347.01549402 433.17957012 349.17104657 433.17832947 351.32659912 C433.17771237 352.38701019 433.17709526 353.44742125 433.17645946 354.53996599 C433.17301425 361.99160504 433.178817 369.44320364 433.18824768 376.89483643 C433.19949755 385.98315931 433.19636498 395.0713441 433.1751247 404.15965128 C433.16465441 408.7914505 433.16042341 413.42301998 433.17372131 418.0548172 C433.18573495 422.30373455 433.17893673 426.55221152 433.15781111 430.80108953 C433.15338271 432.32915735 433.15552539 433.85726323 433.16531426 435.38530612 C433.24275693 448.49053939 431.16902033 460.93266358 425.08056641 472.69543457 C424.74468506 473.35414551 424.40880371 474.01285645 424.06274414 474.69152832 C420.31387855 481.66396228 415.30231593 487.04495959 409.64306641 492.50793457 C408.93666016 493.24527832 408.23025391 493.98262207 407.50244141 494.74230957 C403.1547778 499.02359664 398.39965966 501.97473199 393.01806641 504.75793457 C392.11471558 505.23408203 392.11471558 505.23408203 391.19311523 505.71984863 C379.41080994 511.47410326 367.40397341 513.10635593 354.44604492 512.96203613 C352.97240968 512.9608067 351.49877209 512.96135172 350.0251379 512.96349716 C346.12863934 512.96438905 342.23264624 512.94144545 338.33626556 512.91305542 C334.66113438 512.8900358 330.98611742 512.88919011 327.31091309 512.88635254 C316.6090656 512.86548052 305.90730936 512.80963547 295.20556641 512.75793457 C259.28712891 512.63418457 259.28712891 512.63418457 222.64306641 512.50793457 C222.64306641 452.44793457 222.64306641 392.38793457 222.64306641 330.50793457 C248.05306641 330.50793457 273.46306641 330.50793457 299.64306641 330.50793457 C299.97306641 326.87793457 300.30306641 323.24793457 300.64306641 319.50793457 C300.89770927 317.61894 301.17352432 315.7323663 301.4909668 313.85290527 C301.65326782 312.87970337 301.81556885 311.90650146 301.98278809 310.90380859 C302.15040649 309.92367798 302.3180249 308.94354736 302.49072266 307.93371582 C302.6469812 307.00119995 302.80323975 306.06868408 302.9642334 305.10791016 C303.54019308 301.67799554 304.12327919 298.24928065 304.70556641 294.82043457 C306.00494141 287.12730957 307.30431641 279.43418457 308.64306641 271.50793457 C280.26306641 271.17793457 251.88306641 270.84793457 222.64306641 270.50793457 C222.53994141 259.49418457 222.43681641 248.48043457 222.33056641 237.13293457 C222.26228638 231.94437744 222.26228638 231.94437744 222.19262695 226.65100098 C222.17004395 222.37976074 222.17004395 222.37976074 222.16584778 220.37106323 C222.15824209 218.98808717 222.14080842 217.60514125 222.1151886 216.22238159 C221.95683071 207.21376159 222.60441906 200.21488803 227.64306641 192.50793457 C228.19994141 191.60043457 228.75681641 190.69293457 229.33056641 189.75793457 C235.5986255 183.65928247 242.54096959 180.37835583 251.22583008 180.39440918 C251.88951096 180.39426315 252.55319183 180.39411713 253.23698425 180.39396667 C255.42836792 180.39466275 257.61966635 180.40244087 259.81103516 180.41027832 C261.33132379 180.41214358 262.85161302 180.41356698 264.37190247 180.41456604 C268.37171083 180.41838269 272.37148284 180.42820572 276.37127686 180.43927002 C281.17122394 180.45130175 285.9711832 180.45589044 290.77114105 180.46172333 C298.06180812 180.47141792 305.35239542 180.49058042 312.64306641 180.50793457 C312.64306641 160.70793457 312.64306641 140.90793457 312.64306641 120.50793457 C299.72792158 120.62840442 299.72792158 120.62840442 286.81298828 120.76574707 C281.53169341 120.82563726 276.2504298 120.88371533 270.96899414 120.92980957 C266.70242625 120.96717346 262.43603954 121.01365753 258.16963005 121.06599808 C256.55651016 121.08427499 254.94335185 121.09947685 253.33017159 121.11127853 C244.99788341 121.17431244 236.759685 121.45713171 228.47485352 122.39318848 C227.79541215 122.46798117 227.11597078 122.54277386 226.41594028 122.61983299 C212.10041805 124.40418325 198.74082755 131.00304407 188.42041016 140.96887207 C186.64306641 142.50793457 186.64306641 142.50793457 184.64306641 142.50793457 C184.38912109 143.07898926 184.13517578 143.65004395 183.87353516 144.23840332 C182.49997723 146.77185461 180.85759687 148.6568282 178.95556641 150.82043457 C164.39370797 168.82418682 163.55953106 190.80061255 163.32666016 212.98840332 C163.30604437 214.65420492 163.28504685 216.32000184 163.26368713 217.98579407 C163.20894323 222.33395553 163.15932721 226.68216038 163.11083984 231.03039551 C163.05135539 236.26694651 162.98539434 241.50341959 162.92053986 246.73990631 C162.82313186 254.66253412 162.73386567 262.58521586 162.64306641 270.50793457 C142.84306641 270.50793457 123.04306641 270.50793457 102.64306641 270.50793457 C102.64306641 290.30793457 102.64306641 310.10793457 102.64306641 330.50793457 C122.44306641 330.50793457 142.24306641 330.50793457 162.64306641 330.50793457 C162.64306641 390.56793457 162.64306641 450.62793457 162.64306641 512.50793457 C133.41744141 512.59043457 104.19181641 512.67293457 74.08056641 512.75793457 C64.87206787 512.79435059 55.66356934 512.8307666 46.17602539 512.86828613 C34.88146973 512.88635254 34.88146973 512.88635254 29.58436584 512.88970947 C25.90575903 512.8934175 22.22738602 512.90833257 18.54884338 512.93023682 C13.84062275 512.95789626 9.13273675 512.96585849 4.42444241 512.96022367 C2.70652166 512.96140004 0.98858789 512.96919923 -0.72926247 512.98479509 C-14.44309173 513.10340474 -27.16444776 511.35336119 -39.54443359 504.94543457 C-40.20314453 504.60955322 -40.86185547 504.27367187 -41.54052734 503.9276123 C-48.5129613 500.17874671 -53.89395862 495.1671841 -59.35693359 489.50793457 C-60.09427734 488.80152832 -60.83162109 488.09512207 -61.59130859 487.36730957 C-65.87259566 483.01964596 -68.82373101 478.26452783 -71.60693359 472.88293457 C-71.92436523 472.28070068 -72.24179688 471.6784668 -72.56884766 471.0579834 C-78.51321335 458.88641021 -79.9504034 446.50306313 -79.86486816 433.15100098 C-79.86948889 431.55656683 -79.8758496 429.96213697 -79.88377714 428.36771584 C-79.90033289 424.02943934 -79.89228748 419.69151898 -79.87983227 415.35324192 C-79.87072718 410.65785484 -79.88477839 405.96252611 -79.89575195 401.26715088 C-79.91348384 392.08592356 -79.90972103 382.90482748 -79.89810139 373.72359514 C-79.88904629 366.2579189 -79.88785203 358.79227929 -79.89219666 351.32659912 C-79.89280959 350.26167287 -79.89342252 349.19674663 -79.89405403 348.09954989 C-79.895333 345.93577686 -79.89662986 343.77200384 -79.89794439 341.60823083 C-79.90933458 321.34640573 -79.89626102 301.08465317 -79.87474293 280.82283998 C-79.85687338 263.45937166 -79.85997793 246.09601033 -79.87841797 228.73254395 C-79.8998523 208.54032062 -79.90823608 188.34816077 -79.89596891 168.15592766 C-79.8946948 166.00037512 -79.89343731 163.84482258 -79.89219666 161.68927002 C-79.89157955 160.62885895 -79.89096245 159.56844789 -79.89032665 158.47590315 C-79.88688144 151.0242641 -79.89268419 143.5726655 -79.90211487 136.12103271 C-79.91336473 127.03270983 -79.91023217 117.94452504 -79.88899189 108.85621786 C-79.8785216 104.22441864 -79.87429059 99.59284916 -79.8875885 94.96105194 C-79.89960214 90.71213459 -79.89280391 86.46365762 -79.87167829 82.21477962 C-79.8672499 80.68671179 -79.86939258 79.15860591 -79.87918144 77.63056302 C-79.95662412 64.52532975 -77.88288752 52.08320556 -71.79443359 40.32043457 C-71.45855225 39.66172363 -71.1226709 39.0030127 -70.77661133 38.32434082 C-67.02774573 31.35190686 -62.01618312 25.97090955 -56.35693359 20.50793457 C-55.65052734 19.77059082 -54.94412109 19.03324707 -54.21630859 18.27355957 C-49.86864499 13.99227251 -45.11352685 11.04113715 -39.73193359 8.25793457 C-39.12969971 7.94050293 -38.52746582 7.62307129 -37.90698242 7.29602051 C-25.73540923 1.35165481 -13.35206215 -0.08553523 0 0 Z M-39.35693359 47.50793457 C-49.16371728 60.59698872 -49.50946258 74.46529148 -49.49064636 90.25239563 C-49.49251679 91.74478913 -49.49481841 93.23718214 -49.49751168 94.72957438 C-49.50360739 98.81344823 -49.50349873 102.89730153 -49.50231731 106.98117888 C-49.50211274 111.39233757 -49.50763739 115.80348975 -49.51237488 120.21464539 C-49.52066954 128.8502088 -49.52342918 137.48576538 -49.52398726 146.12133244 C-49.52446294 153.14237394 -49.52652029 160.16341318 -49.52968788 167.18445396 C-49.53849089 187.10267909 -49.54310776 207.02089884 -49.54235741 226.93912593 C-49.54231745 228.01217702 -49.5422775 229.08522811 -49.54223633 230.1907959 C-49.54219545 231.26516121 -49.54215457 232.33952652 -49.54211245 233.44644835 C-49.54170598 250.85860096 -49.55127659 268.27073194 -49.56537469 285.68287829 C-49.57974567 303.57357903 -49.58664449 321.46426922 -49.58578092 339.35497588 C-49.58544922 349.39443894 -49.5881845 359.43387932 -49.59895897 369.47333717 C-49.60807341 378.0205686 -49.61023142 386.56776706 -49.60344955 395.11500124 C-49.60018924 399.47292191 -49.60010998 403.83077938 -49.6088028 408.188694 C-49.61669026 412.1840645 -49.61521354 416.17932191 -49.60651866 420.17468973 C-49.60498862 421.61405993 -49.60678098 423.05343866 -49.61237874 424.49279878 C-49.67602813 442.03148378 -47.6849617 457.07020979 -35.03662109 470.09387207 C-22.05380295 481.78976364 -7.48075734 482.66960564 9.2409668 482.62145996 C10.59203082 482.62117737 11.943095 482.62133723 13.29415894 482.62190247 C16.9360855 482.62218764 20.57797866 482.61633643 24.21989751 482.60932851 C28.0355482 482.6030481 31.85119979 482.60248748 35.66685486 482.6013031 C42.880795 482.59820355 50.09471986 482.59000881 57.3086533 482.57995361 C67.06500255 482.56665183 76.82135602 482.56128144 86.57771206 482.55545139 C101.9328416 482.54606792 117.28793892 482.52613983 132.64306641 482.50793457 C132.64306641 442.24793457 132.64306641 401.98793457 132.64306641 360.50793457 C112.84306641 360.50793457 93.04306641 360.50793457 72.64306641 360.50793457 C72.64306641 320.90793457 72.64306641 281.30793457 72.64306641 240.50793457 C92.44306641 240.50793457 112.24306641 240.50793457 132.64306641 240.50793457 C132.85255095 221.76675204 132.85255095 221.76675204 133.03100586 203.02526855 C133.33180899 177.78952988 133.33180899 177.78952988 136.64306641 166.50793457 C136.87759521 165.70218994 137.11212402 164.89644531 137.35375977 164.06628418 C141.74363861 150.35124319 148.67323974 138.72792394 157.64306641 127.50793457 C158.26955078 126.71387207 158.89603516 125.91980957 159.54150391 125.10168457 C175.01376018 106.56109055 199.83574124 94.26840974 223.64306641 91.50793457 C232.79182905 90.92013928 241.9756556 91.01774866 251.13916016 90.99621582 C253.48686611 90.98072126 255.83456381 90.96391938 258.18225098 90.94580078 C266.81493194 90.88822611 275.44776591 90.85580505 284.08056641 90.82043457 C303.40619141 90.71730957 322.73181641 90.61418457 342.64306641 90.50793457 C342.64306641 130.10793457 342.64306641 169.70793457 342.64306641 210.50793457 C312.94306641 210.50793457 283.24306641 210.50793457 252.64306641 210.50793457 C252.64306641 220.40793457 252.64306641 230.30793457 252.64306641 240.50793457 C283.33306641 240.50793457 314.02306641 240.50793457 345.64306641 240.50793457 C339.04306641 279.77793457 332.44306641 319.04793457 325.64306641 359.50793457 C289.50806641 360.00293457 289.50806641 360.00293457 252.64306641 360.50793457 C252.64306641 400.76793457 252.64306641 441.02793457 252.64306641 482.50793457 C269.72056641 482.54918457 286.79806641 482.59043457 304.39306641 482.63293457 C309.76555664 482.65114258 315.13804687 482.66935059 320.67333984 482.68811035 C325.5310351 482.69480331 325.5310351 482.69480331 330.38873291 482.69882202 C332.53571402 482.70187321 334.68269192 482.70886546 336.82965088 482.71908569 C365.89893076 482.92476391 365.89893076 482.92476391 390.22900391 468.18762207 C402.2243292 454.8724228 402.79716938 439.87117924 402.77677917 422.76347351 C402.7786496 421.27108001 402.78095122 419.778687 402.7836445 418.28629476 C402.78974021 414.20242092 402.78963154 410.11856761 402.78845012 406.03469026 C402.78824555 401.62353158 402.7937702 397.21237939 402.79850769 392.80122375 C402.80680235 384.16566034 402.80956199 375.53010376 402.81012007 366.8945367 C402.81059575 359.8734952 402.8126531 352.85245596 402.81582069 345.83141518 C402.8246237 325.91319005 402.82924057 305.9949703 402.82849022 286.07674321 C402.82845026 285.00369212 402.82841031 283.93064103 402.82836914 282.82507324 C402.82832826 281.75070793 402.82828738 280.67634263 402.82824526 279.56942079 C402.82783879 262.15726818 402.8374094 244.7451372 402.85150751 227.33299085 C402.86587849 209.44229011 402.87277731 191.55159992 402.87191373 173.66089326 C402.87158203 163.6214302 402.87431731 153.58198982 402.88509178 143.54253197 C402.89420623 134.99530055 402.89636423 126.44810208 402.88958236 117.9008679 C402.88632206 113.54294723 402.88624279 109.18508976 402.89493561 104.82717514 C402.90282308 100.83180464 402.90134635 96.83654723 402.89265148 92.84117941 C402.89112144 91.40180921 402.8929138 89.96243048 402.89851155 88.52307036 C402.96216094 70.98438537 400.97109451 55.94565936 388.32275391 42.92199707 C375.00755463 30.92667178 360.00631108 30.3538316 342.89860535 30.3742218 C341.40621185 30.37235138 339.91381884 30.37004975 338.42142659 30.36735648 C334.33755275 30.36126077 330.25369945 30.36136944 326.1698221 30.36255085 C321.75866341 30.36275542 317.34751123 30.35723077 312.93635559 30.35249329 C304.30079218 30.34419862 295.6652356 30.34143899 287.02966853 30.34088091 C280.00862704 30.34040523 272.98758779 30.33834788 265.96654701 30.33518028 C246.04832188 30.32637728 226.13010213 30.3217604 206.21187504 30.32251076 C204.60229841 30.32257069 204.60229841 30.32257069 202.96020508 30.32263184 C201.88583977 30.32267272 200.81147446 30.3227136 199.70455263 30.32275572 C182.29240002 30.32316218 164.88026904 30.31359157 147.46812268 30.29949347 C129.57742195 30.28512249 111.68673175 30.27822367 93.7960251 30.27908725 C83.75656204 30.27941894 73.71712166 30.27668366 63.6776638 30.26590919 C55.13043238 30.25679475 46.58323392 30.25463674 38.03599974 30.26141862 C33.67807907 30.26467892 29.3202216 30.26475819 24.96230698 30.25606537 C20.96693647 30.2481779 16.97167906 30.24965463 12.97631124 30.2583495 C11.53694105 30.25987954 10.09756232 30.25808718 8.65820219 30.25248943 C-10.38103888 30.18339439 -26.10317796 32.79583689 -39.35693359 47.50793457 Z " fill="#000000" transform="translate(79.35693359375,-0.5079345703125)"/>
</svg>
