<svg width="46" height="46" viewBox="0 0 46 46" fill="none" xmlns="http://www.w3.org/2000/svg">
<path d="M17.0162 35.6212L15.3697 45.1548C15.2873 45.6224 14.8829 45.9502 14.4267 45.9502C14.3731 45.9502 14.3156 45.9463 14.2619 45.9367C13.7406 45.8467 13.3898 45.3503 13.4799 44.8289L15.1263 35.2954C15.2183 34.7741 15.7224 34.4214 16.2342 34.5134C16.7555 34.6035 17.1062 35.0999 17.0162 35.6212ZM38.3333 14.375V45.0417C38.3333 45.5707 37.904 46 37.375 46C36.846 46 36.4167 45.5707 36.4167 45.0417V21.0833H29.7083C29.3461 21.0833 29.0145 20.8783 28.8516 20.5543L26.4002 15.6515L24.9071 26.0111C24.8381 26.4883 24.4279 26.8333 23.9602 26.8333C23.9142 26.8333 23.8682 26.8314 23.8222 26.8237C23.299 26.7471 22.9348 26.2622 23.0096 25.7389L24.7442 13.6965C24.3647 13.5163 23.9449 13.4167 23.506 13.4167H19.044L17.3132 25.8923C17.0794 27.0997 17.572 28.2612 18.561 28.9033L26.3752 33.6816C26.6589 33.856 26.8333 34.1646 26.8333 34.5V45.0417C26.8333 45.5707 26.404 46 25.875 46C25.346 46 24.9167 45.5707 24.9167 45.0417V35.0367L17.5375 30.5248C16.376 29.7716 15.6266 28.6043 15.4023 27.3163C14.4727 28.1117 13.1943 28.7481 11.4789 28.7481C8.73616 28.7481 5.78641 26.6493 5.78641 22.0397C5.78641 15.4407 12.0367 11.4981 18.0799 11.4981H23.5041C25.3307 11.4981 26.9732 12.512 27.7897 14.1469L30.2987 19.1647H36.4147V14.3731C36.4147 13.8441 36.8441 13.4148 37.3731 13.4148C37.9021 13.4148 38.3314 13.8441 38.3314 14.3731L38.3333 14.375ZM15.6822 23.6957L17.1024 13.455C12.328 13.8364 7.70307 16.9874 7.70307 22.0397C7.70307 25.8232 10.0759 26.8314 11.4789 26.8314C14.3367 26.8314 15.4924 24.1845 15.6822 23.6957ZM19.1667 4.79167C19.1667 2.1505 21.3152 0 23.9583 0C26.6014 0 28.75 2.1505 28.75 4.79167C28.75 7.43283 26.6014 9.58333 23.9583 9.58333C21.3152 9.58333 19.1667 7.43283 19.1667 4.79167ZM21.0833 4.79167C21.0833 6.37675 22.3732 7.66667 23.9583 7.66667C25.5434 7.66667 26.8333 6.37675 26.8333 4.79167C26.8333 3.20658 25.5434 1.91667 23.9583 1.91667C22.3732 1.91667 21.0833 3.20658 21.0833 4.79167Z" fill="black"/>
</svg>
