<svg width="24" height="24" viewBox="0 0 24 24" fill="none" xmlns="http://www.w3.org/2000/svg">
<g clip-path="url(#clip0_116_353)">
<path d="M23.119 0.871974C22.8065 0.560163 22.4286 0.321564 22.0128 0.17337C21.5969 0.0251769 21.1533 -0.0289213 20.714 0.0149741C17.921 0.284974 8.52801 1.44797 4.90001 5.07197C3.16578 6.81093 2.13741 9.1308 2.01348 11.5836C1.88956 14.0364 2.67888 16.4481 4.22901 18.353L0.289013 22.293C0.106855 22.4816 0.00606016 22.7342 0.00833858 22.9964C0.010617 23.2586 0.115786 23.5094 0.301194 23.6948C0.486602 23.8802 0.737415 23.9854 0.999611 23.9876C1.26181 23.9899 1.51441 23.8891 1.70301 23.707L5.64301 19.767C7.54751 21.3192 9.95988 22.1101 12.4137 21.9869C14.8675 21.8637 17.1886 20.8351 18.928 19.1C22.604 15.423 23.728 6.05897 23.987 3.27697C24.0294 2.83685 23.9735 2.39281 23.8234 1.97691C23.6732 1.561 23.4327 1.18361 23.119 0.871974ZM17.519 17.682C16.1555 19.0405 14.3442 19.8563 12.4233 19.9772C10.5024 20.0981 8.60307 19.5158 7.08001 18.339L16.712 8.70697C16.8942 8.51837 16.995 8.26577 16.9927 8.00357C16.9904 7.74138 16.8852 7.49056 16.6998 7.30516C16.5144 7.11975 16.2636 7.01458 16.0014 7.0123C15.7392 7.01002 15.4866 7.11082 15.298 7.29297L5.66101 16.925C4.48399 15.402 3.90154 13.5027 4.02244 11.5817C4.14335 9.66068 4.95933 7.84936 6.31801 6.48597C8.82701 3.97797 15.745 2.49997 20.907 2.00497C21.0532 1.99075 21.2008 2.0089 21.3391 2.05815C21.4775 2.1074 21.6034 2.18653 21.7077 2.28992C21.8121 2.39331 21.8923 2.51842 21.9429 2.65635C21.9934 2.79428 22.0129 2.94165 22 3.08797C21.5 8.47497 20.059 15.137 17.514 17.682H17.519Z" fill="#222222"/>
</g>
<defs>
<clipPath id="clip0_116_353">
<rect width="24" height="24" fill="white"/>
</clipPath>
</defs>
</svg>
