<?xml version="1.0" encoding="UTF-8"?>
<svg version="1.1" xmlns="http://www.w3.org/2000/svg" width="512" height="512">
<path d="M0 0 C1.59443414 -0.00462073 3.18886401 -0.01098144 4.78328514 -0.01890898 C9.12156164 -0.03546473 13.459482 -0.02741931 17.79775906 -0.0149641 C22.49314614 -0.00585902 27.18847487 -0.01991023 31.8838501 -0.03088379 C41.06507742 -0.04861567 50.2461735 -0.04485286 59.42740583 -0.03323323 C66.89308208 -0.02417812 74.35872169 -0.02298387 81.82440186 -0.02732849 C82.8893281 -0.02794142 83.95425435 -0.02855436 85.05145109 -0.02918586 C87.21522412 -0.03046484 89.37899714 -0.03176169 91.54277015 -0.03307623 C111.80459524 -0.04446641 132.0663478 -0.03139286 152.328161 -0.00987476 C169.69162932 0.00799478 187.05499064 0.00489024 204.41845703 -0.0135498 C224.61068036 -0.03498413 244.8028402 -0.04336792 264.99507332 -0.03110075 C267.15062585 -0.02982663 269.3061784 -0.02856915 271.46173096 -0.02732849 C273.05234756 -0.02640284 273.05234756 -0.02640284 274.67509782 -0.02545848 C282.12673688 -0.02201327 289.57833547 -0.02781602 297.02996826 -0.0372467 C306.11829114 -0.04849657 315.20647593 -0.04536401 324.29478312 -0.02412373 C328.92658234 -0.01365343 333.55815181 -0.00942243 338.18994904 -0.02272034 C342.43886639 -0.03473398 346.68734336 -0.02793575 350.93622136 -0.00681013 C352.46428919 -0.00238173 353.99239506 -0.00452442 355.52043796 -0.01431328 C368.62567123 -0.09175596 381.06779542 1.98198065 392.83056641 8.07043457 C393.48927734 8.40631592 394.14798828 8.74219727 394.82666016 9.08825684 C401.79909411 12.83712243 407.18009143 17.84868504 412.64306641 23.50793457 C413.38041016 24.21434082 414.11775391 24.92074707 414.87744141 25.64855957 C419.15872847 29.99622318 422.10986382 34.75134132 424.89306641 40.13293457 C425.36921387 41.0362854 425.36921387 41.0362854 425.85498047 41.95788574 C431.79934617 54.12945893 433.23653621 66.51280602 433.15100098 79.86486816 C433.1556217 81.45930231 433.16198242 83.05373217 433.16990995 84.64815331 C433.18646571 88.9864298 433.17842029 93.32435016 433.16596508 97.66262722 C433.15685999 102.3580143 433.17091121 107.05334303 433.18188477 111.74871826 C433.19961665 120.92994558 433.19585384 130.11104166 433.1842342 139.292274 C433.1751791 146.75795024 433.17398484 154.22358986 433.17832947 161.68927002 C433.1789424 162.75419627 433.17955533 163.81912251 433.18018684 164.91631925 C433.18146581 167.08009228 433.18276267 169.2438653 433.1840772 171.40763831 C433.19546739 191.66946341 433.18239383 211.93121597 433.16087574 232.19302917 C433.14300619 249.55649748 433.14611074 266.91985881 433.16455078 284.2833252 C433.18598511 304.47554852 433.1943689 324.66770837 433.18210173 344.85994148 C433.18082761 347.01549402 433.17957012 349.17104657 433.17832947 351.32659912 C433.17771237 352.38701019 433.17709526 353.44742125 433.17645946 354.53996599 C433.17301425 361.99160504 433.178817 369.44320364 433.18824768 376.89483643 C433.19949755 385.98315931 433.19636498 395.0713441 433.1751247 404.15965128 C433.16465441 408.7914505 433.16042341 413.42301998 433.17372131 418.0548172 C433.18573495 422.30373455 433.17893673 426.55221152 433.15781111 430.80108953 C433.15338271 432.32915735 433.15552539 433.85726323 433.16531426 435.38530612 C433.24275693 448.49053939 431.16902033 460.93266358 425.08056641 472.69543457 C424.74468506 473.35414551 424.40880371 474.01285645 424.06274414 474.69152832 C420.31387855 481.66396228 415.30231593 487.04495959 409.64306641 492.50793457 C408.93666016 493.24527832 408.23025391 493.98262207 407.50244141 494.74230957 C403.1547778 499.02359664 398.39965966 501.97473199 393.01806641 504.75793457 C392.11471558 505.23408203 392.11471558 505.23408203 391.19311523 505.71984863 C379.02154204 511.66421433 366.63819496 513.10140437 353.28613281 513.01586914 C351.69169867 513.02048987 350.0972688 513.02685058 348.50284767 513.03477812 C344.16457118 513.05133387 339.82665081 513.04328845 335.48837376 513.03083324 C330.79298668 513.02172816 326.09765794 513.03577937 321.40228271 513.04675293 C312.2210554 513.06448482 303.03995931 513.06072201 293.85872698 513.04910237 C286.39305074 513.04004727 278.92741112 513.03885301 271.46173096 513.04319763 C270.39680471 513.04381056 269.33187846 513.0444235 268.23468173 513.045055 C266.07090869 513.04633398 263.90713567 513.04763083 261.74336267 513.04894537 C241.48153757 513.06033555 221.21978501 513.047262 200.95797181 513.0257439 C183.59450349 513.00787436 166.23114217 513.0109789 148.86767578 513.02941895 C128.67545245 513.05085327 108.48329261 513.05923706 88.29105949 513.04696989 C86.13550696 513.04569577 83.97995441 513.04443829 81.82440186 513.04319763 C80.76399079 513.04258053 79.70357972 513.04196343 78.61103499 513.04132763 C71.15939593 513.03788241 63.70779734 513.04368516 56.25616455 513.05311584 C47.16784167 513.06436571 38.07965688 513.06123315 28.9913497 513.03999287 C24.35955047 513.02952257 19.727981 513.02529157 15.09618378 513.03858948 C10.84726643 513.05060312 6.59878946 513.04380489 2.34991145 513.02267927 C0.82184362 513.01825087 -0.70626225 513.02039356 -2.23430514 513.03018242 C-15.33953842 513.1076251 -27.7816626 511.0338885 -39.54443359 504.94543457 C-40.20314453 504.60955322 -40.86185547 504.27367187 -41.54052734 503.9276123 C-48.5129613 500.17874671 -53.89395862 495.1671841 -59.35693359 489.50793457 C-60.09427734 488.80152832 -60.83162109 488.09512207 -61.59130859 487.36730957 C-65.87259566 483.01964596 -68.82373101 478.26452783 -71.60693359 472.88293457 C-71.92436523 472.28070068 -72.24179688 471.6784668 -72.56884766 471.0579834 C-78.51321335 458.88641021 -79.9504034 446.50306313 -79.86486816 433.15100098 C-79.86948889 431.55656683 -79.8758496 429.96213697 -79.88377714 428.36771584 C-79.90033289 424.02943934 -79.89228748 419.69151898 -79.87983227 415.35324192 C-79.87072718 410.65785484 -79.88477839 405.96252611 -79.89575195 401.26715088 C-79.91348384 392.08592356 -79.90972103 382.90482748 -79.89810139 373.72359514 C-79.88904629 366.2579189 -79.88785203 358.79227929 -79.89219666 351.32659912 C-79.89280959 350.26167287 -79.89342252 349.19674663 -79.89405403 348.09954989 C-79.895333 345.93577686 -79.89662986 343.77200384 -79.89794439 341.60823083 C-79.90933458 321.34640573 -79.89626102 301.08465317 -79.87474293 280.82283998 C-79.85687338 263.45937166 -79.85997793 246.09601033 -79.87841797 228.73254395 C-79.8998523 208.54032062 -79.90823608 188.34816077 -79.89596891 168.15592766 C-79.8946948 166.00037512 -79.89343731 163.84482258 -79.89219666 161.68927002 C-79.89157955 160.62885895 -79.89096245 159.56844789 -79.89032665 158.47590315 C-79.88688144 151.0242641 -79.89268419 143.5726655 -79.90211487 136.12103271 C-79.91336473 127.03270983 -79.91023217 117.94452504 -79.88899189 108.85621786 C-79.8785216 104.22441864 -79.87429059 99.59284916 -79.8875885 94.96105194 C-79.89960214 90.71213459 -79.89280391 86.46365762 -79.87167829 82.21477962 C-79.8672499 80.68671179 -79.86939258 79.15860591 -79.87918144 77.63056302 C-79.95662412 64.52532975 -77.88288752 52.08320556 -71.79443359 40.32043457 C-71.45855225 39.66172363 -71.1226709 39.0030127 -70.77661133 38.32434082 C-67.02774573 31.35190686 -62.01618312 25.97090955 -56.35693359 20.50793457 C-55.65052734 19.77059082 -54.94412109 19.03324707 -54.21630859 18.27355957 C-49.86864499 13.99227251 -45.11352685 11.04113715 -39.73193359 8.25793457 C-39.12969971 7.94050293 -38.52746582 7.62307129 -37.90698242 7.29602051 C-25.73540923 1.35165481 -13.35206215 -0.08553523 0 0 Z M-39.35693359 47.50793457 C-49.16371728 60.59698872 -49.50946258 74.46529148 -49.49064636 90.25239563 C-49.49251679 91.74478913 -49.49481841 93.23718214 -49.49751168 94.72957438 C-49.50360739 98.81344823 -49.50349873 102.89730153 -49.50231731 106.98117888 C-49.50211274 111.39233757 -49.50763739 115.80348975 -49.51237488 120.21464539 C-49.52066954 128.8502088 -49.52342918 137.48576538 -49.52398726 146.12133244 C-49.52446294 153.14237394 -49.52652029 160.16341318 -49.52968788 167.18445396 C-49.53849089 187.10267909 -49.54310776 207.02089884 -49.54235741 226.93912593 C-49.54231745 228.01217702 -49.5422775 229.08522811 -49.54223633 230.1907959 C-49.54219545 231.26516121 -49.54215457 232.33952652 -49.54211245 233.44644835 C-49.54170598 250.85860096 -49.55127659 268.27073194 -49.56537469 285.68287829 C-49.57974567 303.57357903 -49.58664449 321.46426922 -49.58578092 339.35497588 C-49.58544922 349.39443894 -49.5881845 359.43387932 -49.59895897 369.47333717 C-49.60807341 378.0205686 -49.61023142 386.56776706 -49.60344955 395.11500124 C-49.60018924 399.47292191 -49.60010998 403.83077938 -49.6088028 408.188694 C-49.61669026 412.1840645 -49.61521354 416.17932191 -49.60651866 420.17468973 C-49.60498862 421.61405993 -49.60678098 423.05343866 -49.61237874 424.49279878 C-49.67602813 442.03148378 -47.6849617 457.07020979 -35.03662109 470.09387207 C-21.72142182 482.08919736 -6.72017826 482.66203754 10.38752747 482.64164734 C11.87992097 482.64351776 13.37231398 482.64581939 14.86470622 482.64851266 C18.94858006 482.65460837 23.03243337 482.65449971 27.11631072 482.65331829 C31.5274694 482.65311372 35.93862159 482.65863837 40.34977722 482.66337585 C48.98534063 482.67167052 57.62089722 482.67443015 66.25646428 482.67498823 C73.27750577 482.67546391 80.29854502 482.67752126 87.3195858 482.68068886 C107.23781093 482.68949187 127.15603068 482.69410874 147.07425777 482.69335838 C148.6838344 482.69329845 148.6838344 482.69329845 150.32592773 482.6932373 C151.40029304 482.69319642 152.47465835 482.69315554 153.58158018 482.69311342 C170.99373279 482.69270696 188.40586378 482.70227757 205.81801013 482.71637567 C223.70871087 482.73074665 241.59940106 482.73764547 259.49010772 482.7367819 C269.52957077 482.7364502 279.56901116 482.73918548 289.60846901 482.74995995 C298.15570043 482.75907439 306.70289889 482.7612324 315.25013307 482.75445052 C319.60805375 482.75119022 323.96591121 482.75111095 328.32382584 482.75980377 C332.31919634 482.76769124 336.31445375 482.76621451 340.30982157 482.75751964 C341.74919176 482.7559896 343.18857049 482.75778196 344.62793062 482.76337972 C362.16661561 482.8270291 377.20534162 480.83596268 390.22900391 468.18762207 C402.2243292 454.8724228 402.79716938 439.87117924 402.77677917 422.76347351 C402.7786496 421.27108001 402.78095122 419.778687 402.7836445 418.28629476 C402.78974021 414.20242092 402.78963154 410.11856761 402.78845012 406.03469026 C402.78824555 401.62353158 402.7937702 397.21237939 402.79850769 392.80122375 C402.80680235 384.16566034 402.80956199 375.53010376 402.81012007 366.8945367 C402.81059575 359.8734952 402.8126531 352.85245596 402.81582069 345.83141518 C402.8246237 325.91319005 402.82924057 305.9949703 402.82849022 286.07674321 C402.82845026 285.00369212 402.82841031 283.93064103 402.82836914 282.82507324 C402.82832826 281.75070793 402.82828738 280.67634263 402.82824526 279.56942079 C402.82783879 262.15726818 402.8374094 244.7451372 402.85150751 227.33299085 C402.86587849 209.44229011 402.87277731 191.55159992 402.87191373 173.66089326 C402.87158203 163.6214302 402.87431731 153.58198982 402.88509178 143.54253197 C402.89420623 134.99530055 402.89636423 126.44810208 402.88958236 117.9008679 C402.88632206 113.54294723 402.88624279 109.18508976 402.89493561 104.82717514 C402.90282308 100.83180464 402.90134635 96.83654723 402.89265148 92.84117941 C402.89112144 91.40180921 402.8929138 89.96243048 402.89851155 88.52307036 C402.96216094 70.98438537 400.97109451 55.94565936 388.32275391 42.92199707 C375.00755463 30.92667178 360.00631108 30.3538316 342.89860535 30.3742218 C341.40621185 30.37235138 339.91381884 30.37004975 338.42142659 30.36735648 C334.33755275 30.36126077 330.25369945 30.36136944 326.1698221 30.36255085 C321.75866341 30.36275542 317.34751123 30.35723077 312.93635559 30.35249329 C304.30079218 30.34419862 295.6652356 30.34143899 287.02966853 30.34088091 C280.00862704 30.34040523 272.98758779 30.33834788 265.96654701 30.33518028 C246.04832188 30.32637728 226.13010213 30.3217604 206.21187504 30.32251076 C204.60229841 30.32257069 204.60229841 30.32257069 202.96020508 30.32263184 C201.88583977 30.32267272 200.81147446 30.3227136 199.70455263 30.32275572 C182.29240002 30.32316218 164.88026904 30.31359157 147.46812268 30.29949347 C129.57742195 30.28512249 111.68673175 30.27822367 93.7960251 30.27908725 C83.75656204 30.27941894 73.71712166 30.27668366 63.6776638 30.26590919 C55.13043238 30.25679475 46.58323392 30.25463674 38.03599974 30.26141862 C33.67807907 30.26467892 29.3202216 30.26475819 24.96230698 30.25606537 C20.96693647 30.2481779 16.97167906 30.24965463 12.97631124 30.2583495 C11.53694105 30.25987954 10.09756232 30.25808718 8.65820219 30.25248943 C-10.38103888 30.18339439 -26.10317796 32.79583689 -39.35693359 47.50793457 Z " fill="#000000" transform="translate(79.35693359375,-0.5079345703125)"/>
<path d="M0 0 C29.7 0 59.4 0 90 0 C90 1.32 90 2.64 90 4 C90.93714844 3.71125 91.87429688 3.4225 92.83984375 3.125 C115.85637823 -3.40797595 140.24274545 -1.72976443 161.28125 9.8046875 C184.98100617 23.46732927 200.37762739 45.40683157 208.0546875 71.30859375 C210.06904953 79.17459423 210.13795634 86.63895891 210.11352539 94.72827148 C210.11367142 95.99725784 210.11381744 97.2662442 210.1139679 98.57368469 C210.11425363 102.03598401 210.10839309 105.49824836 210.10139394 108.96053958 C210.09512313 112.58534996 210.09455366 116.21016123 210.09336853 119.8349762 C210.09026618 126.69128204 210.08206761 133.54757185 210.07201904 140.40387064 C210.05872859 149.67429893 210.05334914 158.94473163 210.04751682 168.21516705 C210.03812695 182.81012336 210.01820072 197.40504585 210 212 C180.3 212 150.6 212 120 212 C119.95101562 204.35714844 119.90203125 196.71429688 119.8515625 188.83984375 C119.81617342 183.99542953 119.78021179 179.15103312 119.7421875 174.30664062 C119.68190012 166.61892252 119.62372284 158.9312293 119.578125 151.2434082 C119.54122684 145.04472622 119.49485417 138.84618063 119.44193649 132.64761543 C119.4234167 130.2837927 119.40829985 127.91994075 119.39665604 125.55607414 C119.37975254 122.24288874 119.35070687 118.93001407 119.31884766 115.61694336 C119.31668747 114.64158127 119.31452728 113.66621918 119.31230164 112.66130066 C119.2302085 105.96987714 119.06203374 100.3713388 114.5 95.125 C110.42973711 91.66527655 107.68107343 91.71766259 102.4765625 91.78515625 C99.22945841 92.06684509 97.44817877 92.84857018 95 95 C91.61135971 99.59886896 90.88793475 104.05250393 90.84178162 109.66340637 C90.8319928 110.57059418 90.82220398 111.47778198 90.81211853 112.41246033 C90.80636307 113.39501297 90.8006076 114.37756561 90.79467773 115.38989258 C90.78477814 116.43425476 90.77487854 117.47861694 90.76467896 118.55462646 C90.73313091 122.00123845 90.70833292 125.44786422 90.68359375 128.89453125 C90.66301845 131.28635513 90.64202182 133.67817543 90.62062073 136.06999207 C90.5654596 142.36145112 90.51602401 148.65294267 90.46777344 154.94445801 C90.40867658 162.49527282 90.34248138 170.04602833 90.27747345 177.59679413 C90.17953892 189.06449316 90.09063144 200.53223045 90 212 C60.3 212 30.6 212 0 212 C0 142.04 0 72.08 0 0 Z M30 30 C30 80.16 30 130.32 30 182 C39.9 182 49.8 182 60 182 C60.0093457 179.4221167 60.01869141 176.8442334 60.02832031 174.18823242 C60.06219788 165.63859813 60.11780646 157.08920247 60.18390274 148.53975964 C60.22328926 143.35990888 60.25552092 138.1802259 60.27099609 133.00024414 C60.28622093 127.99443492 60.32076931 122.98908719 60.36830902 117.98348427 C60.38306293 116.08072246 60.39103755 114.17789474 60.39188385 112.27507591 C60.4058431 96.61648157 62.31792027 85.20252174 73 73 C83.76862227 62.94093812 95.78674934 60.39342795 110.0703125 60.6953125 C121.48593086 61.21596452 131.10782612 66.6921956 138.8828125 75.015625 C145.62049485 83.61548087 149.28908418 92.7559418 149.31884766 103.66748047 C149.32889328 104.51691727 149.3389389 105.36635406 149.34928894 106.24153137 C149.38004029 109.03341022 149.39713363 111.82519352 149.4140625 114.6171875 C149.43278062 116.5591819 149.45235452 118.50116822 149.4727478 120.44314575 C149.52400688 125.5426761 149.56366594 130.6422328 149.60089111 135.74188232 C149.64096977 140.95038335 149.6920445 146.15877536 149.7421875 151.3671875 C149.83887318 161.57805591 149.92228471 171.78896956 150 182 C159.9 182 169.8 182 180 182 C180.04542553 170.93294329 180.08201582 159.86594985 180.10362434 148.7988205 C180.11400229 143.65832518 180.12805026 138.5178977 180.15087891 133.37744141 C180.17282318 128.40424444 180.18461348 123.43111218 180.18975449 118.45787048 C180.19341192 116.57314538 180.20055219 114.68842328 180.21146011 112.8037262 C180.3467368 88.43127965 177.88964931 66.94670759 160.40234375 48.3828125 C148.10189069 36.18236313 134.83644731 30.68283964 117.65234375 30.61499023 C99.20269866 30.93820845 86.07522324 40.38461529 71.9375 51.375 C70.09352433 52.8008723 68.24852539 54.22542259 66.40234375 55.6484375 C65.60304443 56.26895996 64.80374512 56.88948242 63.98022461 57.52880859 C62 59 62 59 60 60 C60 50.1 60 40.2 60 30 C50.1 30 40.2 30 30 30 Z " fill="#000000" transform="translate(211,210)"/>
<path d="M0 0 C29.7 0 59.4 0 90 0 C90 69.96 90 139.92 90 212 C60.3 212 30.6 212 0 212 C0 142.04 0 72.08 0 0 Z M30 30 C30 80.16 30 130.32 30 182 C39.9 182 49.8 182 60 182 C60 131.84 60 81.68 60 30 C50.1 30 40.2 30 30 30 Z " fill="#000000" transform="translate(91,210)"/>
<path d="M0 0 C29.7 0 59.4 0 90 0 C90 29.7 90 59.4 90 90 C60.3 90 30.6 90 0 90 C0 60.3 0 30.6 0 0 Z M30 30 C30 39.9 30 49.8 30 60 C39.9 60 49.8 60 60 60 C60 50.1 60 40.2 60 30 C50.1 30 40.2 30 30 30 Z " fill="#000000" transform="translate(91,90)"/>
</svg>
