<svg width="78" height="72" viewBox="0 0 78 72" fill="none" xmlns="http://www.w3.org/2000/svg">
<path d="M52.8561 63.9041C56.0832 63.4558 59.3747 63.2594 61.8912 63.6502C63.1473 63.8453 64.2585 64.1938 65.0739 64.7694C65.9109 65.3603 66.4316 66.1912 66.4625 67.2791C66.4932 68.3612 66.039 69.2127 65.2526 69.8367C64.4886 70.4429 63.423 70.8274 62.2106 71.0633C59.7818 71.5358 56.5598 71.4463 53.3639 71.1033C50.1572 70.7592 46.9321 70.1546 44.4791 69.5741C43.2536 69.284 42.2129 68.9986 41.4596 68.7518C41.0846 68.6289 40.7691 68.5115 40.5348 68.4051C40.4191 68.3525 40.3102 68.2963 40.2194 68.2371C40.1541 68.1946 40.0023 68.0926 39.9235 67.9198C39.7835 67.6122 39.9612 67.3603 40.0328 67.2772C40.1187 67.1776 40.2302 67.0985 40.3268 67.0389C40.5291 66.914 40.8165 66.7823 41.1559 66.6473C41.8432 66.3739 42.8354 66.0532 44.024 65.7235C46.4049 65.063 49.6194 64.3538 52.8561 63.9041ZM56.734 0.320145C59.7663 -0.395377 62.6312 0.0517183 65.1422 2.03401C67.651 4.01472 68.6824 6.587 68.5455 9.52522C68.4101 12.4313 67.1354 15.6758 65.0973 19.0741C61.0183 25.8748 53.7688 33.4777 45.8531 40.5487C37.9292 47.6269 29.3029 54.2029 22.4371 58.9471C19.0049 61.3187 16.0058 63.2368 13.7506 64.533C12.6248 65.1802 11.6741 65.6782 10.943 65.9998C10.5787 66.16 10.2555 66.2824 9.98596 66.3563C9.74458 66.4224 9.44891 66.4796 9.19495 66.4071C8.79762 66.2933 8.6714 65.9268 8.63538 65.6873C8.59722 65.4331 8.62185 65.126 8.67737 64.7996C8.79042 64.1355 9.06271 63.2245 9.4635 62.1239C10.2684 59.9137 11.6268 56.8442 13.4078 53.2508C16.9717 46.0604 22.2488 36.7278 28.2311 27.8953C34.2081 19.0707 40.9129 10.7096 47.3375 5.49104C50.5484 2.88296 53.7246 1.03039 56.734 0.320145ZM65.6383 40.8807C70.2049 39.9428 74.2997 40.304 76.5553 43.283C77.6839 44.7737 77.8677 46.267 77.2262 47.6824C76.6086 49.0446 75.2572 50.2623 73.4928 51.3524C69.9514 53.5402 64.4644 55.3795 58.7164 56.826C52.955 58.2759 46.8794 59.3436 42.1295 59.9735C39.755 60.2883 37.7047 60.4958 36.1862 60.5848C35.4285 60.6292 34.7941 60.6446 34.3141 60.6287C34.075 60.6208 33.8632 60.605 33.6891 60.578C33.5375 60.5544 33.337 60.5118 33.1813 60.408C33.0637 60.3295 32.973 60.2149 32.9264 60.0741C32.8828 59.9419 32.8874 59.816 32.9049 59.7186C32.9381 59.5343 33.0324 59.3592 33.1276 59.2137C33.3258 58.9107 33.6579 58.5416 34.0807 58.1307C34.9354 57.3 36.254 56.2082 37.8971 54.9783C41.1872 52.5157 45.8276 49.4662 50.7848 46.7967C55.7358 44.1306 61.0353 41.8262 65.6383 40.8807ZM3.9762 25.9969C5.0587 25.985 5.90205 26.4535 6.51233 27.2508C7.10507 28.0252 7.47141 29.0969 7.68616 30.3133C8.11625 32.75 7.96964 35.9704 7.57092 39.16C7.17085 42.3602 6.51056 45.574 5.88733 48.0164C5.57591 49.2368 5.27232 50.2724 5.01233 51.0213C4.88287 51.3942 4.76053 51.7079 4.65002 51.9403C4.59538 52.0551 4.53699 52.163 4.4762 52.2528C4.43245 52.3174 4.32741 52.467 4.15295 52.5428C3.84361 52.6769 3.5956 52.496 3.51331 52.4227C3.41528 52.3351 3.33787 52.2215 3.27991 52.1239C3.15857 51.9194 3.03198 51.6295 2.90295 51.2879C2.64163 50.5959 2.33881 49.5982 2.02991 48.4041C1.41111 46.0121 0.756973 42.7858 0.363892 39.5418C-0.0280067 36.3074 -0.16646 33.0131 0.268188 30.5037C0.485173 29.2512 0.853229 28.1459 1.44299 27.3407C2.04846 26.5142 2.88807 26.0089 3.9762 25.9969ZM19.2467 8.04475C20.4017 7.18808 21.713 6.81527 23.1549 7.14046C24.5984 7.46612 25.532 8.33044 26.0123 9.57014C26.4789 10.7747 26.5075 12.3029 26.2584 13.9871C25.7592 17.362 24.1057 21.5998 22.1061 25.7283C20.1013 29.8676 17.7277 33.94 15.7545 36.994C14.7682 38.5204 13.8783 39.7995 13.1813 40.7078C12.8338 41.1607 12.5271 41.5306 12.277 41.7948C12.1529 41.9257 12.0335 42.0401 11.9235 42.1278C11.8347 42.1984 11.6768 42.3139 11.4869 42.3436C11.1493 42.3961 10.9401 42.1689 10.8561 42.0399C10.7696 41.9069 10.7169 41.7457 10.6813 41.6004C10.6072 41.2983 10.5621 40.8788 10.5367 40.3817C10.4856 39.377 10.5133 37.9479 10.6227 36.2508C10.8416 32.8524 11.39 28.3276 12.3092 23.866C13.2267 19.413 14.5215 14.9822 16.2506 11.7977C17.1147 10.2065 18.1071 8.89003 19.2467 8.04475Z" fill="#51BFE5"/>
</svg>
