<svg width="72" height="72" viewBox="0 0 72 72" fill="none" xmlns="http://www.w3.org/2000/svg">
<path d="M48.6821 64.0929C51.6369 63.6466 54.6529 63.4504 56.9595 63.84C58.1107 64.0345 59.1305 64.3823 59.8794 64.9572C60.648 65.5474 61.1272 66.3784 61.1558 67.4679C61.1841 68.5525 60.7644 69.408 60.0376 70.0353C59.3331 70.6432 58.354 71.0286 57.2427 71.2638C55.0157 71.7351 52.0624 71.6454 49.1362 71.3039C46.2 70.9612 43.2474 70.3594 41.0015 69.7814C39.8796 69.4927 38.927 69.208 38.2368 68.9621C37.8934 68.8397 37.6034 68.7227 37.3882 68.6164C37.2818 68.5638 37.1812 68.507 37.0972 68.4474C37.0371 68.4049 36.8956 68.3015 36.8218 68.1252C36.6897 67.8091 36.8581 67.5484 36.9272 67.4611C37.0087 67.3584 37.1135 67.2779 37.2026 67.2179C37.39 67.0921 37.6552 66.96 37.9663 66.8254C38.5967 66.5527 39.5059 66.2328 40.5942 65.9045C42.7745 65.2467 45.7184 64.5407 48.6821 64.0929ZM52.2104 0.821457C55.0103 0.102976 57.6573 0.554256 59.9683 2.53825C62.2717 4.5159 63.2081 7.07354 63.0835 9.98259C62.9599 12.8667 61.7961 16.0915 59.9302 19.4748C56.1966 26.2443 49.56 33.8137 42.313 40.8537C35.0588 47.9006 27.1613 54.4466 20.8755 59.1701C17.7332 61.5313 14.9873 63.4422 12.9214 64.7336C11.8903 65.3781 11.0183 65.8749 10.3462 66.1965C10.0114 66.3566 9.71221 66.4808 9.46045 66.5558C9.33451 66.5934 9.20866 66.622 9.08936 66.6349C8.97519 66.6473 8.8332 66.6486 8.69189 66.6047C8.29725 66.4817 8.18979 66.1026 8.15967 65.8849C8.1255 65.6378 8.14712 65.3366 8.19775 65.0129C8.30076 64.3548 8.54971 63.45 8.9165 62.3547C9.65285 60.1558 10.8956 57.1005 12.5259 53.5236C15.7878 46.3667 20.6175 37.0772 26.0933 28.2853C31.5638 19.5018 37.7027 11.178 43.5864 5.98064C46.5259 3.38409 49.4405 1.53237 52.2104 0.821457ZM60.3511 41.1857C64.5299 40.2525 68.314 40.6045 70.4009 43.6017C71.4425 45.0979 71.6043 46.5836 71.022 47.9806C70.459 49.3308 69.225 50.5426 67.6079 51.6291C64.3643 53.8082 59.3386 55.6399 54.0757 57.0802C48.8003 58.524 43.2375 59.5868 38.8882 60.214C36.7141 60.5276 34.8364 60.7337 33.4448 60.8224C32.7503 60.8667 32.167 60.8823 31.7251 60.8664C31.5052 60.8585 31.3088 60.8421 31.146 60.8146C31.0068 60.7911 30.8104 60.7477 30.6548 60.6349C30.3789 60.4349 30.3521 60.1264 30.3843 59.9308C30.4139 59.7517 30.4987 59.58 30.5854 59.4357C30.7659 59.1359 31.0687 58.7694 31.4556 58.3605C32.2376 57.5339 33.4446 56.4472 34.9487 55.2228C37.9604 52.7714 42.2084 49.735 46.7466 47.0773C51.2785 44.4234 56.1327 42.1279 60.3511 41.1857ZM3.94385 26.3576C4.94207 26.3457 5.71782 26.8169 6.27783 27.6125C6.82192 28.3855 7.15818 29.4549 7.35498 30.6672C7.74906 33.0955 7.61459 36.3038 7.24951 39.4797C6.88318 42.6663 6.27918 45.8659 5.7085 48.298C5.42335 49.5132 5.14407 50.5446 4.90576 51.2912C4.78713 51.6628 4.67551 51.9764 4.57373 52.2092C4.52344 52.3241 4.46942 52.4333 4.4126 52.5246C4.38407 52.5704 4.3477 52.6213 4.30518 52.6691C4.26612 52.713 4.19903 52.78 4.10303 52.8254C3.80453 52.9659 3.56916 52.7747 3.49561 52.7033C3.4048 52.615 3.33396 52.5019 3.28076 52.4045C3.16915 52.2 3.05231 51.9109 2.93408 51.5705C2.69462 50.8809 2.41714 49.8865 2.13428 48.6974C1.56776 46.3158 0.969749 43.104 0.609863 39.8742C0.251063 36.6541 0.12352 33.3717 0.521973 30.8703C0.720792 29.6223 1.05847 28.5173 1.60205 27.7101C2.16155 26.8795 2.93908 26.3697 3.94385 26.3576ZM17.9009 8.50993C18.9717 7.64637 20.1899 7.27078 21.5229 7.59782C22.8533 7.9244 23.7036 8.78768 24.1401 10.0129C24.5656 11.2076 24.5929 12.7259 24.3647 14.4035C23.9077 17.7643 22.394 21.9856 20.563 26.0968C18.7274 30.2184 16.5534 34.2735 14.7466 37.3146C13.8435 38.8346 13.0271 40.1083 12.3882 41.0138C12.0699 41.4649 11.7886 41.834 11.5581 42.0988C11.4436 42.2303 11.3319 42.3478 11.228 42.4377C11.1465 42.5082 10.991 42.6337 10.8003 42.6662C10.4652 42.7229 10.2719 42.4807 10.2017 42.3634C10.1241 42.2337 10.0769 42.0749 10.0444 41.9308C9.97698 41.6316 9.93481 41.2155 9.91162 40.7209C9.86478 39.7212 9.89161 38.299 9.9917 36.6095C10.1921 33.2268 10.6932 28.7221 11.5347 24.2804C12.3744 19.8482 13.5604 15.4355 15.145 12.2619C15.9365 10.6768 16.8485 9.35877 17.9009 8.50993Z" fill="white"/>
</svg>
