<svg width="24" height="24" viewBox="0 0 24 24" fill="none" xmlns="http://www.w3.org/2000/svg">
<g clip-path="url(#clip0_11_44)">
<path d="M23.623 12.247L22.452 10.439C21.889 9.57 21.036 8.918 20.051 8.601L18.614 8.14C18.353 8.057 18.07 8.201 17.985 8.463C17.901 8.726 18.045 9.007 18.308 9.092L19.745 9.553C19.759 9.558 11.993 12.176 11.993 12.176L4.208 9.573C4.271 9.538 5.629 9.117 5.692 9.092C5.955 9.008 6.1 8.726 6.015 8.463C5.931 8.2 5.649 8.057 5.386 8.14L3.949 8.601C2.964 8.917 2.111 9.57 1.548 10.439L0.369 12.261C0.131 12.655 0 13.146 0 13.646C0 13.942 0.053 14.236 0.157 14.521C0.457 15.353 1.163 15.943 2.007 16.171L2.003 18.493C2 20.005 2.962 21.342 4.396 21.82L9.94 23.668C10.603 23.889 11.299 23.999 11.995 23.999C12.691 23.999 13.388 23.889 14.051 23.668L19.602 21.817C21.032 21.341 21.993 20.009 21.996 18.503L22 16.169C22.843 15.941 23.543 15.351 23.844 14.52C23.948 14.237 24 13.943 24 13.647C24 13.147 23.869 12.655 23.623 12.248V12.247ZM1.096 14.175C0.925 13.739 0.997 13.157 1.217 12.791L2.387 10.983C2.57 10.701 2.799 10.457 3.051 10.241L11.237 12.978L9.287 16.229C8.916 16.846 8.119 17.153 7.417 16.919L2.103 15.148C1.635 14.993 1.267 14.637 1.096 14.175ZM4.714 20.87C3.69 20.528 2.995 19.574 2.997 18.494L3 16.503L7.102 17.868C7.366 17.956 7.64 18 7.914 18C8.825 18 9.68 17.519 10.144 16.742L11.499 14.483L11.496 22.958C11.076 22.92 10.658 22.851 10.256 22.717L4.712 20.869L4.714 20.87ZM20.997 18.5C20.996 19.576 20.308 20.527 19.287 20.867L13.736 22.718C13.335 22.853 12.918 22.922 12.498 22.96L12.501 14.482L13.856 16.743C14.32 17.519 15.175 18.001 16.086 18.001C16.361 18.001 16.634 17.957 16.899 17.869L21 16.502L20.997 18.5ZM22.905 14.173C22.733 14.637 22.365 14.992 21.897 15.148L16.584 16.919C15.878 17.152 15.084 16.847 14.713 16.229L12.761 12.974L20.945 10.237C21.199 10.454 21.429 10.7 21.612 10.983L22.775 12.777C23.004 13.159 23.076 13.729 22.905 14.173ZM12 10C14.757 10 17 7.757 17 5C17 2.243 14.757 0 12 0C9.243 0 7 2.243 7 5C7 7.757 9.243 10 12 10ZM12 1C14.206 1 16 2.794 16 5C16 7.206 14.206 9 12 9C9.794 9 8 7.206 8 5C8 2.794 9.794 1 12 1ZM10.29 6.532L9.157 5.414C8.96 5.22 8.958 4.904 9.152 4.707C9.346 4.51 9.663 4.508 9.859 4.702L10.991 5.818C11.239 6.06 11.641 6.059 11.887 5.815L14.135 3.64C14.334 3.448 14.651 3.453 14.842 3.652C15.034 3.85 15.029 4.167 14.83 4.359L12.585 6.53C12.27 6.841 11.854 6.996 11.438 6.996C11.022 6.996 10.606 6.841 10.289 6.531L10.29 6.532Z" fill="black"/>
</g>
<defs>
<clipPath id="clip0_11_44">
<rect width="24" height="24" fill="white"/>
</clipPath>
</defs>
</svg>
