<svg width="24" height="24" viewBox="0 0 24 24" fill="none" xmlns="http://www.w3.org/2000/svg">
<g clip-path="url(#clip0_41_178)">
<path d="M22.1699 1.82L21.1199 0.910003C19.9099 -0.299998 17.9499 -0.299998 16.7399 0.910003C16.7099 0.940003 14.8599 3.35 14.8599 3.35C13.7199 4.55 13.7199 6.44 14.8599 7.63L16.0199 9.09C14.5599 12.4 12.2899 14.68 9.08994 16.04L7.62994 14.87C6.43994 13.72 4.53994 13.72 3.34994 14.87C3.34994 14.87 0.939943 16.72 0.909943 16.75C-0.300057 17.96 -0.300057 19.92 0.859943 21.08L1.85994 22.23C3.00994 23.38 4.55994 24.01 6.23994 24.01C13.8799 24.01 23.9999 13.88 23.9999 6.25C23.9999 4.58 23.3699 3.02 22.1699 1.83V1.82ZM6.23994 22C5.09994 22 4.04994 21.58 3.32994 20.85L2.32994 19.7C1.91994 19.29 1.89994 18.62 2.28994 18.19C2.28994 18.19 4.67994 16.35 4.70994 16.32C5.11994 15.91 5.83994 15.91 6.25994 16.32C6.28994 16.35 8.29994 17.96 8.29994 17.96C8.57994 18.18 8.94994 18.24 9.27994 18.11C13.4199 16.53 16.3899 13.57 18.0999 9.3C18.2299 8.97 18.1799 8.59 17.9499 8.3C17.9499 8.3 16.3399 6.28 16.3199 6.26C15.8899 5.83 15.8899 5.14 16.3199 4.71C16.3499 4.68 18.1899 2.29 18.1899 2.29C18.6199 1.9 19.2899 1.91 19.7499 2.37L20.7999 3.28C21.5699 4.05 21.9999 5.1 21.9999 6.24C21.9999 13.2 12.2299 22 6.23994 22Z" fill="#222222"/>
</g>
<defs>
<clipPath id="clip0_41_178">
<rect width="24" height="24" fill="white"/>
</clipPath>
</defs>
</svg>
