<svg width="33" height="33" viewBox="0 0 33 33" fill="none" xmlns="http://www.w3.org/2000/svg">
<g clip-path="url(#clip0_17_6)">
<path d="M21.8298 27.2871H27.2873C28.7347 27.2871 30.1228 26.7121 31.1463 25.6887C32.1698 24.6652 32.7448 23.2771 32.7448 21.8297V16.3722C32.7448 15.6485 32.4573 14.9544 31.9455 14.4427C31.4338 13.931 30.7397 13.6435 30.016 13.6435L21.9526 13.6435C22.2764 11.7381 23.2631 10.0084 24.7386 8.76015C26.2141 7.51185 28.0833 6.82525 30.016 6.82166C30.3779 6.82166 30.7249 6.67792 30.9808 6.42205C31.2366 6.16618 31.3804 5.81915 31.3804 5.4573C31.3804 5.09545 31.2366 4.74842 30.9808 4.49255C30.7249 4.23668 30.3779 4.09294 30.016 4.09294C27.1222 4.09619 24.3478 5.24719 22.3016 7.29343C20.2554 9.33967 19.1044 12.114 19.1011 15.0078V24.5584C19.1011 25.2821 19.3886 25.9761 19.9003 26.4879C20.4121 26.9996 21.1061 27.2871 21.8298 27.2871Z" fill="black"/>
<path d="M2.72877 27.2871H8.18622C9.63363 27.2871 11.0218 26.7121 12.0452 25.6887C13.0687 24.6652 13.6437 23.2771 13.6437 21.8297L13.6437 16.3722C13.6437 15.6485 13.3562 14.9544 12.8445 14.4427C12.3327 13.931 11.6387 13.6435 10.9149 13.6435L2.85156 13.6435C3.17528 11.7381 4.16206 10.0084 5.63755 8.76015C7.11304 7.51185 8.98226 6.82525 10.9149 6.82166C11.2768 6.82166 11.6238 6.67792 11.8797 6.42205C12.1356 6.16618 12.2793 5.81915 12.2793 5.4573C12.2793 5.09545 12.1356 4.74842 11.8797 4.49255C11.6238 4.23668 11.2768 4.09294 10.9149 4.09294C8.02113 4.09619 5.24677 5.24719 3.20053 7.29343C1.15429 9.33967 0.00329018 12.114 4.00543e-05 15.0078L4.00543e-05 24.5584C4.00543e-05 25.2821 0.287531 25.9761 0.799266 26.4879C1.311 26.9996 2.00506 27.2871 2.72877 27.2871Z" fill="black"/>
</g>
<defs>
<clipPath id="clip0_17_6">
<rect width="32.7447" height="32.7447" fill="white" transform="matrix(-1 0 0 -1 32.7448 32.7446)"/>
</clipPath>
</defs>
</svg>
