<svg width="24" height="24" viewBox="0 0 24 24" fill="none" xmlns="http://www.w3.org/2000/svg">
<g clip-path="url(#clip0_11_46)">
<path d="M23.458 0.0469492C22.884 0.0709492 9.359 0.692949 4.888 5.16395C1.161 8.89095 1.04601 14.8829 4.543 18.7489L0.00500488 23.2879L0.712005 23.9949L5.251 19.4559C7.123 21.1489 9.49301 21.9949 11.862 21.9949C14.387 21.9949 16.913 21.0339 18.836 19.1109C23.397 14.5499 23.958 1.13395 23.979 0.564949L24 0.0229492L23.459 0.0459492L23.458 0.0469492ZM18.128 18.4039C14.792 21.7399 9.434 21.8549 5.959 18.7469L16.353 8.35295L15.646 7.64595L5.252 18.0399C2.144 14.5639 2.258 9.20695 5.595 5.87095C9.308 2.15995 20.354 1.24295 22.951 1.07695C22.795 3.66095 21.916 14.6169 18.128 18.4039Z" fill="black"/>
</g>
<defs>
<clipPath id="clip0_11_46">
<rect width="24" height="24" fill="white"/>
</clipPath>
</defs>
</svg>
