<svg width="18" height="19" viewBox="0 0 18 19" fill="none" xmlns="http://www.w3.org/2000/svg">
<path d="M1.18821 9.69926L3.82906 11.6907L2.82613 14.8977C2.66406 15.3951 2.662 15.9332 2.82028 16.4319C2.97856 16.9306 3.28869 17.3631 3.70444 17.665C4.11307 17.9766 4.60826 18.1435 5.11622 18.1408C5.62419 18.1382 6.11774 17.9662 6.52333 17.6504L9.10558 15.6881L11.6886 17.6481C12.0965 17.9579 12.589 18.1262 13.0953 18.1287C13.6017 18.1313 14.0957 17.968 14.5065 17.6623C14.9173 17.3567 15.2237 16.9244 15.3815 16.4276C15.5394 15.9308 15.5406 15.3952 15.385 14.8977L14.3821 11.6907L17.0229 9.69926C17.4303 9.39174 17.7331 8.95917 17.8881 8.46333C18.0432 7.9675 18.0425 7.43376 17.8862 6.93835C17.7299 6.44295 17.4259 6.01122 17.0178 5.70483C16.6096 5.39844 16.1181 5.23306 15.6135 5.23232H12.3695L11.3852 2.06441C11.2304 1.56575 10.9262 1.13074 10.5165 0.822108C10.1068 0.513475 9.61273 0.347168 9.10558 0.347168C8.59842 0.347168 8.10437 0.513475 7.69467 0.822108C7.28497 1.13074 6.98079 1.56575 6.82599 2.06441L5.8416 5.23232H2.60062C2.096 5.23306 1.60451 5.39844 1.19636 5.70483C0.788204 6.01122 0.484264 6.44295 0.327949 6.93835C0.171635 7.43376 0.170943 7.9675 0.325973 8.46333C0.481002 8.95917 0.783822 9.39174 1.19118 9.69926H1.18821Z" fill="#2973B2"/>
</svg>
