<svg width="46" height="46" viewBox="0 0 46 46" fill="none" xmlns="http://www.w3.org/2000/svg">
<g clip-path="url(#clip0_16_2)">
<path d="M25.9919 17.7216C24.3589 14.9443 21.9324 13.4167 19.1628 13.4167C16.4622 13.4167 14.1047 14.8964 12.3606 17.6775C12.3606 17.6775 0.734056 35.1882 0.712972 35.2303C-0.381444 37.5878 -0.201278 40.3057 1.19789 42.4983C2.59706 44.6929 4.98522 46.0001 7.58614 46.0001H30.7471C33.3481 46.0001 35.7362 44.691 37.1354 42.4983C38.5346 40.3057 38.7166 37.5878 37.5494 35.1057L25.9919 17.7216ZM12.0481 44.0834L17.0756 33.9462C17.4627 33.1105 18.2428 32.6122 19.1647 32.6122C20.0866 32.6122 20.8667 33.1124 21.2654 33.9692L26.2851 44.0834H12.0481ZM35.5216 41.4672C34.477 43.1059 32.6906 44.0834 30.7491 44.0834H28.428L22.9942 33.1373C22.2946 31.6308 20.8284 30.6955 19.1666 30.6955C17.5049 30.6955 16.0386 31.6308 15.3506 33.1162L9.90914 44.0853H7.58806C5.64456 44.0853 3.86014 43.1078 2.81556 41.4691C1.78247 39.8514 1.63872 37.8504 2.42456 36.1043L13.9725 18.7182C14.9404 17.1753 16.629 15.3353 19.1647 15.3353C21.2596 15.3353 23.0498 16.4968 24.3704 18.7393L35.8838 36.0392C36.7022 37.8006 36.5661 39.8303 35.5216 41.4672ZM41.6146 31.8838C41.4843 31.9452 41.3463 31.9739 41.2121 31.9739C40.8518 31.9739 40.5049 31.7688 40.342 31.42C40.1196 30.9389 40.3286 30.3697 40.8077 30.1473C43.6367 28.8306 44.8691 25.4572 43.5524 22.6225L32.039 5.32266C30.7184 3.08016 28.9263 1.91866 26.8333 1.91866C24.2976 1.91866 22.609 3.75866 21.6411 5.30157L19.0804 9.15791C18.7891 9.59682 18.1949 9.71757 17.7521 9.42624C17.3113 9.13299 17.1925 8.53882 17.4838 8.09799L20.0311 4.26466C21.7752 1.48549 24.1327 0.00390625 26.8333 0.00390625C29.6048 0.00390625 32.0294 1.53149 33.6624 4.30874L45.2199 21.691C47.0503 25.6087 45.402 30.1282 41.6166 31.8877L41.6146 31.8838Z" fill="black"/>
</g>
<defs>
<clipPath id="clip0_16_2">
<rect width="46" height="46" fill="white"/>
</clipPath>
</defs>
</svg>
